<svg xmlns="http://www.w3.org/2000/svg" viewBox="0 0 98.72 130.68" role="img" aria-labelledby="title">
  <title id="title">Sainam Technology</title>
  <path fill="#009FA0" d="M93.38 0V28.52H42.09A15.05 15.05 0 0 0 27.04 43.56V45.04A15.55 15.55 0 0 0 31.59 56.03L63.29 87.73H43.87A43.87 43.87 0 0 1 0 43.87A43.87 43.87 0 0 1 43.87 0ZM0.46 130.68H55.42A43.3 43.3 0 0 0 98.72 87.38A43.3 43.3 0 0 0 55.42 44.08H42.41L71.11 72.79A17.52 17.52 0 0 1 76.25 85.18A18.41 18.41 0 0 1 57.83 103.59H0.46Z"/>
</svg>
